# xmcd CD database file
#
# Track frame offsets:
#	150
#	14920
#	30791
#	48095
#	62430
#	90409
#	100980
#	123686
#	142987
#	166435
#	186325
#	227783
#
# Disc length: 3390 seconds
#
# Revision: 0
# Processed by: cddbd v1.5.1PL0 Copyright (c) Steve Scherf et al.
# Submitted via: CDex 1.51
#
DISCID=980d3c0c
DTITLE=Pinkie and The Snakeshakers - Live
DYEAR=2005
DGENRE=Blues
TTITLE0=Frosty
TTITLE1=You've Got To Love Her With A Feeling
TTITLE2=Bad Weather
TTITLE3=Key To The Highway
TTITLE4=Red House
TTITLE5=Ain't Gonna' Do Me No Good
TTITLE6=Whipping Post
TTITLE7=I'm Tore Down
TTITLE8=All Your Love
TTITLE9=You Should Have Thought About That
TTITLE10=Little Wing
TTITLE11=Whole Lotta Love
EXTD=YEAR: 2005
EXTT0=
EXTT1=
EXTT2=
EXTT3=
EXTT4=
EXTT5=
EXTT6=
EXTT7=
EXTT8=
EXTT9=
EXTT10=
EXTT11=
PLAYORDER=
